<svg xmlns="http://www.w3.org/2000/svg" width="64" height="64" viewBox="0 0 24 24" fill="none" stroke="#fece2f" stroke-width="1.5" xmlns:v="https://vecta.io/nano"><path d="M2 12.026a10.02 10.02 0 0 0 8.847 9.96c.735.085 1.447-.229 1.97-.753a1.68 1.68 0 0 0 0-2.373c-.523-.524-.949-1.307-.555-1.934C13.839 14.419 22 20.178 22 12.026 22 6.489 17.523 2 12 2S2 6.489 2 12.026z"/><circle cx="17.5" cy="11.5" r=".75"/><circle cx="6.5" cy="11.5" r=".75"/><path d="M10.335 7a.75.75 0 1 1-1.5 0 .75.75 0 1 1 1.5 0zm4.915 0a.75.75 0 1 1-1.5 0 .75.75 0 1 1 1.5 0z"/></svg>